PathFileType	4	(x/y/z)	S08_M20_T09
DataRate	CameraRate	NumFrames	NumMarkers	Units	OrigDataRate	OrigDataStartFrame	OrigNumFrames
240	240	5	51	mm	240	319	510
Frame#	Time	Sternum			R.Acromium			L.Acromium			Top.Head			R.ASIS			L.ASIS			R.PSIS			L.PSIS			R.Great.Tro			L.Great.Tro			R.Iliac.Crest			L.Iliac.Crest			V.Sacral			R.Thigh.Upper.Post			R.Thigh.Lower.Ant			R.Thigh.Lower.Post			R.Thigh.Upper.Ant			R.Knee.Lat			R.Knee.Med			R.Shank.Upper.Post			R.Shank.Lower.Ant			R.Shank.Lower.Post			R.Shank.Upper.Ant			R.Ankle.Lat			R.Ankle.Med			R.Heel.Upper			R.Heel.Med			R.Heel.Lat			R.Toe.Lat			R.Toe.Med			R.Toe.Tip			L.Thigh.Upper.Post			L.Thigh.Lower.Ant			L.Thigh.Lower.Post			L.Thigh.Upper.Ant			L.Knee.Lat			L.Knee.Med			L.Shank.Upper.Post			L.Shank.Lower.Ant			L.Shank.Lower.Post			L.Shank.Upper.Ant			L.Ankle.Lat			L.Ankle.Med			L.Heel.Upper			L.Heel.Med			L.Heel.Lat			L.Toe.Lat			L.Toe.Med			L.Toe.Tip			Cervical.Spine			Back			
		X1	Y1	Z1	X2	Y2	Z2	X3	Y3	Z3	X4	Y4	Z4	X5	Y5	Z5	X6	Y6	Z6	X7	Y7	Z7	X8	Y8	Z8	X9	Y9	Z9	X10	Y10	Z10	X11	Y11	Z11	X12	Y12	Z12	X13	Y13	Z13	X14	Y14	Z14	X15	Y15	Z15	X16	Y16	Z16	X17	Y17	Z17	X18	Y18	Z18	X19	Y19	Z19	X20	Y20	Z20	X21	Y21	Z21	X22	Y22	Z22	X23	Y23	Z23	X24	Y24	Z24	X25	Y25	Z25	X26	Y26	Z26	X27	Y27	Z27	X28	Y28	Z28	X29	Y29	Z29	X30	Y30	Z30	X31	Y31	Z31	X32	Y32	Z32	X33	Y33	Z33	X34	Y34	Z34	X35	Y35	Z35	X36	Y36	Z36	X37	Y37	Z37	X38	Y38	Z38	X39	Y39	Z39	X40	Y40	Z40	X41	Y41	Z41	X42	Y42	Z42	X43	Y43	Z43	X44	Y44	Z44	X45	Y45	Z45	X46	Y46	Z46	X47	Y47	Z47	X48	Y48	Z48	X49	Y49	Z49	X50	Y50	Z50	X51	Y51	Z51	

319	1.325	105.69	1194.2	330.08	-7.5142	1421.9	509.26	-31.724	1459.1	174.77	1.0666	1747.2	359.15	77.318	978.41	457.35	108.83	978.48	226.45	-110.95	1006.2	353.49	-94.229	1007.2	260.76	-22.532	879.89	518.12	35.87	872.09	147.45	-19.478	1049.8	487.95	13.967	1057.5	178.96	-121.82	966.62	305.28	-117.75	705.39	499.87	-79.833	583.96	470.66	-142.31	619.29	478.54	-45.702	670.86	494.07	-153.59	506.97	458.96	-166.48	518.28	331.37	-301.66	376.41	461.52	-278.93	292.43	436.66	-339.92	310.28	450.62	-239.66	358.85	449.59	-423.57	162.17	409.47	-388.94	165.27	330.96	-481.95	151.11	358.22	-482.6	124.42	329.25	-489.02	125.06	390.77	NaN	NaN	NaN	-320.59	44.708	313.02	-258.31	43.269	359.33	95.679	665.74	165.88	209.11	619.45	198.13	146.14	592.57	188.08	163.73	692.11	170.84	200.49	509.99	208.17	197.01	509.86	333.31	207.49	320.13	206.7	300.7	262.58	230.08	229.67	251.21	222.5	271.57	331.75	214.24	314.06	97.338	237.56	334.46	114.01	324.73	275.28	60.496	291.03	302.18	35.056	323.74	291.56	35.047	260.64	455.33	86.273	222.92	472.21	105.35	334.42	520.15	147.59	283.16	-86.125	1484.6	342.82	-132.53	1198.9	347.13
320	1.3292	112.15	1194.1	329.56	-1.452	1421.7	508.65	-25.88	1458.8	174.08	6.4667	1747.1	358.58	84.023	977.98	456.92	115.4	978.54	226.02	-104.26	1006.2	353.19	-87.612	1007.4	260.42	-15.972	879.33	517.55	42.605	872.47	146.84	-12.662	1049.4	487.65	20.521	1057.6	178.61	-115.2	966.71	304.85	-111.55	705.07	499.42	-73.606	583.51	470.31	-136.05	618.94	477.97	-39.414	670.42	493.61	-147.5	506.73	458.77	-160.17	517.86	331.13	-296.65	377.49	461.46	-274.75	293.21	436.89	-335.54	311.7	450.73	-234.87	359.35	449.7	-420.6	164.11	410.16	-385.81	166.76	331.65	-478.74	154.37	358.82	-480.01	127.93	329.69	-486.46	128.39	391.23	NaN	NaN	NaN	-320.07	44.915	313.18	-258.19	43.187	359.32	102.25	666.22	165.7	215.59	619.81	198.17	152.61	593.01	188	170.34	692.52	170.8	206.73	510.27	208.17	202.85	510.14	333.23	212.18	320.4	206.6	304.73	261.9	230.36	233.65	251.23	222.45	276.33	331.39	214.45	315.93	96.727	237.63	336.59	113.01	324.89	276.52	61.182	291.24	302.9	35.027	323.8	292.16	35.399	260.73	456.87	83.381	223.1	474.18	101.95	334.55	522.81	143.52	283.37	-80.291	1484.3	342.19	-126.09	1198.5	346.77
321	1.3333	118.63	1194.2	329.03	4.6351	1421.6	508.03	-20.037	1458.5	173.4	11.876	1747.1	358.03	90.749	977.6	456.48	121.96	978.7	225.58	-97.558	1006.2	352.91	-81.007	1007.6	260.11	-9.3545	878.78	516.97	49.32	872.97	146.22	-5.8123	1049.1	487.37	27.061	1057.8	178.27	-108.59	966.89	304.45	-105.23	704.71	498.95	-67.223	583.05	469.93	-129.66	618.55	477.38	-33.005	669.99	493.14	-141.22	506.47	458.57	-153.69	517.42	330.9	-291.45	378.57	461.4	-270.38	293.98	437.15	-330.96	313.13	450.85	-229.9	359.84	449.81	-417.43	166.1	410.87	-382.52	168.26	332.36	-475.32	157.74	359.48	-477.23	131.58	330.19	-483.71	131.86	391.74	NaN	NaN	NaN	-319.5	45.163	313.35	-258.06	43.09	359.3	108.78	666.77	165.5	222.01	620.22	198.16	159.01	593.5	187.9	176.89	692.98	170.73	212.92	510.61	208.15	208.61	510.49	333.12	216.84	320.75	206.46	308.71	261.31	230.63	237.58	251.33	222.36	281.05	331.1	214.65	317.72	96.197	237.7	338.6	112.09	325.05	277.71	61.894	291.43	303.55	35.055	323.86	292.73	35.791	260.8	458.33	80.589	223.29	476.03	98.642	334.71	525.35	139.54	283.62	-74.453	1484.2	341.55	-119.64	1198.1	346.43
322	1.3375	125.1	1194.3	328.5	10.746	1421.6	507.4	-14.198	1458.4	172.71	17.296	1747.2	357.48	97.487	977.27	456.02	128.51	978.96	225.13	-90.855	1006.3	352.67	-74.419	1008	259.83	-2.6876	878.25	516.4	56.005	873.58	145.6	1.0648	1048.8	487.1	33.579	1058.1	177.95	-101.99	967.15	304.08	-98.793	704.32	498.44	-60.681	582.59	469.55	-123.11	618.12	476.78	-26.475	669.56	492.65	-134.75	506.18	458.37	-147.02	516.93	330.68	-286.04	379.64	461.35	-265.81	294.76	437.42	-326.19	314.57	450.99	-224.72	360.3	449.93	-414.07	168.13	411.62	-379.05	169.8	333.09	-471.68	161.23	360.17	-474.26	135.34	330.72	-480.74	135.47	392.3	NaN	NaN	NaN	-318.9	45.461	313.52	-257.92	42.978	359.28	115.26	667.38	165.27	228.37	620.66	198.12	165.36	594.04	187.78	183.41	693.49	170.62	219.08	511.01	208.11	214.29	510.91	332.99	221.46	321.17	206.29	312.63	260.78	230.88	241.46	251.51	222.25	285.72	330.89	214.84	319.44	95.741	237.76	340.52	111.25	325.19	278.84	62.622	291.6	304.13	35.132	323.9	293.25	36.216	260.86	459.7	77.906	223.5	477.76	95.454	334.9	527.77	135.66	283.91	-68.612	1484.1	340.92	-113.18	1197.9	346.1
323	1.3417	131.57	1194.5	327.96	16.881	1421.7	506.76	-8.3637	1458.3	172.03	22.727	1747.4	356.93	104.23	976.99	455.55	135.03	979.32	224.66	-84.158	1006.5	352.47	-67.855	1008.5	259.58	4.0213	877.74	515.82	62.652	874.29	144.97	7.9606	1048.6	486.84	40.069	1058.5	177.65	-95.418	967.49	303.74	-92.237	703.9	497.91	-53.974	582.11	469.15	-116.42	617.64	476.16	-19.823	669.13	492.13	-128.07	505.84	458.18	-140.16	516.38	330.45	-280.41	380.69	461.3	-261.05	295.52	437.71	-321.21	316	451.14	-219.33	360.74	450.06	-410.5	170.21	412.4	-375.41	171.37	333.84	-467.82	164.85	360.91	-471.08	139.24	331.3	-477.55	139.23	392.9	NaN	NaN	NaN	-318.24	45.817	313.7	-257.75	42.846	359.26	121.69	668.05	165.01	234.68	621.15	198.05	171.64	594.63	187.62	189.88	694.04	170.47	225.2	511.47	208.05	219.91	511.38	332.84	226.03	321.66	206.07	316.48	260.33	231.12	245.29	251.75	222.09	290.34	330.73	215	321.09	95.356	237.81	342.34	110.49	325.31	279.93	63.355	291.74	304.66	35.254	323.92	293.75	36.664	260.89	461	75.337	223.73	479.38	92.394	335.1	530.06	131.9	284.22	-62.768	1484	340.29	-106.72	1197.7	345.79
